<svg id="Layer_1" data-name="Layer 1" xmlns="http://www.w3.org/2000/svg" viewBox="0 0 244.08 231.2"><defs><style>.cls-1{fill:#34b44a;}.cls-2{fill:#fff;}</style></defs><path class="cls-1" d="M121.32.25c61.74-.21,122.54,50,122.51,115.25,0,66-62.3,115.45-125.14,115.45C49.14,231-.29,186.55.25,110,.67,50.49,64.07.45,121.32.25Zm2.16,200.85c46.11-1.61,90.26-39.83,88.6-88.59-1.64-47.87-46.63-82.4-91.23-82.46C73.9,30,27.56,68.13,28.74,117.77,29.91,166.76,76.78,202.74,123.48,201.1Z"/><path class="cls-2" d="M212.08,112.51c1.66,48.76-42.49,87-88.6,88.59-46.7,1.64-93.57-34.34-94.74-83.33C27.56,68.13,73.9,30,120.85,30.05,165.45,30.11,210.44,64.64,212.08,112.51ZM162.57,98.45c.5-6.54.22-10.06-.39-12.2-1.09-3.84-3.81-8.26-7.44-12.13-2.88-3.06-4.79-4.15-6.89-4.72l-6.6-.64H76.91l-.13,18.39H137c.73.19,5.56,1,6.47,5.1,1.1,4.92.12,9.1-2.94,10.26a33.71,33.71,0,0,1-4.85,1.73l-8.56.52-41.57-.43-8.81,9.37v40.17l17.71.34-.69-32.15,30.66-.37,14.37,30.9h21.06l-19.45-34.81a45.93,45.93,0,0,1,4.85-1c9-2,12.22-4,14.17-6.13C162.15,107.7,162.31,101.84,162.57,98.45Z"/><path class="cls-1" d="M162.18,86.25c.61,2.14.89,5.66.39,12.2-.26,3.39-.42,9.25-3.11,12.23-2,2.17-5.14,4.09-14.17,6.13a45.93,45.93,0,0,0-4.85,1l19.45,34.81H138.83l-14.37-30.9-30.66.37.69,32.15-17.71-.34V113.7l8.81-9.37,41.57.43,8.56-.52a33.71,33.71,0,0,0,4.85-1.73c3.06-1.16,4-5.34,2.94-10.26-.91-4.07-5.74-4.91-6.47-5.1H76.78l.13-18.39h64.34l6.6.64c2.1.57,4,1.66,6.89,4.72C158.37,78,161.09,82.41,162.18,86.25Z"/></svg>